<svg xmlns="http://www.w3.org/2000/svg" width="35.784" height="35.784" viewBox="0 0 35.784 35.784"><defs><style>.a{fill:none;stroke:#fff;stroke-miterlimit:10;stroke-width:2px;}.b{fill:#fff;}</style></defs><g transform="translate(504.76 -1045.276)"><g transform="translate(-1025 310)"><g transform="translate(521.24 736.276)"><path class="a" d="M538.133,770.06a16.892,16.892,0,1,1,16.892-16.893A16.911,16.911,0,0,1,538.133,770.06Z" transform="translate(-521.24 -736.276)"/></g><g transform="translate(537.429 743.163)"><g transform="translate(0)"><path class="b" d="M551.458,760.535a.757.757,0,0,1-.4-.11l-7.6-4.633a.764.764,0,0,1-.364-.649v-8.807a.76.76,0,1,1,1.52,0v8.379l7.235,4.41a.76.76,0,0,1-.4,1.409Z" transform="translate(-543.099 -745.575)"/></g></g></g></g></svg>