<svg xmlns="http://www.w3.org/2000/svg" viewBox="0 0 12 12"><defs><style>.cls-1{fill:#fff;}</style></defs><title>info-icon</title><g id="Capa_2" data-name="Capa 2"><g id="Layer_1" data-name="Layer 1"><path class="cls-1" d="M6,0a6,6,0,1,0,6,6A6,6,0,0,0,6,0ZM7.25,9.3l-.74.28a2.06,2.06,0,0,1-.64.09A1.26,1.26,0,0,1,5,9.4a.86.86,0,0,1-.31-.69,1.94,1.94,0,0,1,0-.34c0-.11,0-.24.07-.39l.39-1.36c0-.13.06-.26.09-.37a2,2,0,0,0,0-.32.47.47,0,0,0-.11-.37.6.6,0,0,0-.41-.1,1.18,1.18,0,0,0-.31,0L4.2,5.6l.1-.43c.25-.1.49-.19.72-.26a2.28,2.28,0,0,1,.66-.11,1.25,1.25,0,0,1,.86.27.89.89,0,0,1,.3.7c0,.06,0,.16,0,.31a1.66,1.66,0,0,1-.08.41L6.36,7.85c0,.11-.06.24-.09.38a2.36,2.36,0,0,0,0,.32.47.47,0,0,0,.12.37A.73.73,0,0,0,6.78,9a1.2,1.2,0,0,0,.31,0l.26-.09ZM7.18,3.77A.9.9,0,0,1,6.53,4a.91.91,0,0,1-.65-.25.78.78,0,0,1-.27-.6.8.8,0,0,1,.27-.61.91.91,0,0,1,.65-.25.9.9,0,0,1,.65.25.8.8,0,0,1,.27.61A.78.78,0,0,1,7.18,3.77Z"/></g></g></svg>