<svg xmlns="http://www.w3.org/2000/svg" width="37.112" height="37.112" viewBox="0 0 37.112 37.112"><defs><style>.a{fill:none;stroke:#fff;stroke-miterlimit:10;stroke-width:2px;}.b{fill:#fff;}</style></defs><g transform="translate(-902.58 -737.276)"><g transform="translate(903.58 738.276)"><path class="a" d="M921.136,773.388a17.556,17.556,0,1,1,17.556-17.556A17.576,17.576,0,0,1,921.136,773.388Z" transform="translate(-903.58 -738.276)"/><g transform="translate(12.593 7.899)"><path class="b" d="M924.889,767.852a.914.914,0,0,1-.9-.958V765.81l-.559-.183c-.182-.057-.353-.112-.52-.174a5.425,5.425,0,0,1-2.8-2.259.957.957,0,0,1-.09-.921.932.932,0,0,1,.757-.5,1.133,1.133,0,0,1,.132-.008.872.872,0,0,1,.76.47,3.612,3.612,0,0,0,1.722,1.425l.593.242V762.48c0-1.076,0-2.126-.013-3.176a.8.8,0,0,0-.529-.65c-.235-.119-.478-.225-.719-.333a8.024,8.024,0,0,1-1.221-.622,3.378,3.378,0,0,1-1.508-2.26,4.012,4.012,0,0,1,.753-3.046,4.541,4.541,0,0,1,2.895-1.726l.342-.072v-.641c0-.191,0-.366,0-.542a.913.913,0,0,1,1.823,0c0,.075,0,.154-.005.234a1.321,1.321,0,0,0,.143.847,1.107,1.107,0,0,0,.733.387,1.855,1.855,0,0,1,.232.062,5.5,5.5,0,0,1,2.794,2.266.852.852,0,0,1-.043,1.048.743.743,0,0,1-.892.319,1.689,1.689,0,0,1-.68-.515,4.011,4.011,0,0,0-1.7-1.327l-.583-.219V754.1c0,1,0,1.97.013,2.946.006.4.45.638.5.664.242.127.493.244.744.359a8.183,8.183,0,0,1,1.418.761,3.322,3.322,0,0,1,1.338,2.287,3.966,3.966,0,0,1-.884,2.991,4.723,4.723,0,0,1-2.79,1.61l-.341.074v1.085a.926.926,0,0,1-.906.975Zm.938-3.994.559-.173a2.171,2.171,0,0,0,1.637-2.288c-.014-.47-.249-1.308-1.669-1.631l-.526-.12Zm-2.433-11.175a2.2,2.2,0,0,0-1.616,2.384c.042.747.683,1.334,1.67,1.531l.516.1V752.49Z" transform="translate(-919.94 -748.538)"/></g></g></g></svg>