<svg xmlns="http://www.w3.org/2000/svg" width="136" height="136" viewBox="0 0 136 136"><defs><style>.a{fill:#1e22aa;}</style></defs><path class="a" d="M38.75,25.5A12.75,12.75,0,1,1,51.5,12.75,12.75,12.75,0,0,1,38.75,25.5Zm0-21.25a8.5,8.5,0,1,0,8.5,8.5A8.5,8.5,0,0,0,38.75,4.25Z" transform="translate(29.25 0)"/><path class="a" d="M74.25,48H19V31A17,17,0,0,1,36,14H57.25a17,17,0,0,1,17,17Zm-51-4.25H70V31A12.75,12.75,0,0,0,57.25,18.25H36A12.75,12.75,0,0,0,23.25,31Z" transform="translate(21.375 15.75)"/><rect class="a" width="4" height="11" transform="translate(53 51)"/><rect class="a" width="4" height="11" transform="translate(79 51)"/><path class="a" d="M91,84.75H59.125V80.5H86.75V8.25H40V4H91Z" transform="translate(45 4.5)"/><path class="a" d="M31.875,84.75H0V4H51V8.25H4.25V80.5H31.875Z" transform="translate(0 4.5)"/><path class="a" d="M93.75,45H13V28H93.75Zm-76.5-4.25H89.5v-8.5H17.25Z" transform="translate(14.625 31.5)"/><path class="a" d="M74.25,97.75H70V38.25H23.25v59.5H19V34H74.25Z" transform="translate(21.375 38.25)"/><path class="a" d="M54.75,82.5H25V40H54.75Zm-25.5-4.25H50.5v-34H29.25Z" transform="translate(28.125 45)"/><rect class="a" width="4" height="5" transform="translate(66 38)"/><rect class="a" width="4" height="4" transform="translate(66 47)"/></svg>