<svg xmlns="http://www.w3.org/2000/svg" width="126" height="126" viewBox="0 0 126 126"><defs><style>.a{fill:#1e22aa;}</style></defs><path class="a" d="M37.813,47.563C31.079,47.563,26,41.223,26,32.8,26,26.891,27.339,20,37.813,20s11.813,6.832,11.813,12.8C49.625,41.223,44.546,47.563,37.813,47.563Zm0-23.625c-5.906,0-7.875,2.146-7.875,8.859,0,5.257,2.756,10.828,7.875,10.828s7.875-5.572,7.875-10.828C45.688,26.083,43.719,23.938,37.813,23.938Z" transform="translate(25.188 19.375)"/><path class="a" d="M58.406,52.53h-31.5C23.7,52.53,21,48.928,21,44.655V39.576L35.766,31.13l1.969,3.426-12.8,7.3v2.8c0,2.4,1.378,3.938,1.969,3.938h31.5c.591,0,1.969-1.536,1.969-3.938v-2.8l-12.8-7.3,1.969-3.426,14.766,8.446v5.079C64.313,48.928,61.615,52.53,58.406,52.53Z" transform="translate(20.344 30.157)"/><path class="a" d="M32.969,94.552H31V86.677h3.938v3.938a39.375,39.375,0,0,0,14.9-74.931l1.673-3.544A43.313,43.313,0,0,1,32.969,94.552Z" transform="translate(30.031 11.761)"/><path class="a" d="M34.756,92.451A43.312,43.312,0,0,1,53.322,10h1.969v7.875H51.353V13.938a39.375,39.375,0,0,0-14.9,74.931Z" transform="translate(9.678 9.688)"/><path class="a" d="M63,126a63,63,0,1,1,63-63,63,63,0,0,1-63,63ZM63,3.938A59.063,59.063,0,1,0,122.063,63,59.063,59.063,0,0,0,63,3.938Z"/><path class="a" d="M58.156,111.313a53.156,53.156,0,1,1,53.156-53.156,53.156,53.156,0,0,1-53.156,53.156Zm0-102.375a49.219,49.219,0,1,0,49.219,49.219A49.219,49.219,0,0,0,58.156,8.938Z" transform="translate(4.844 4.844)"/><rect class="a" width="10" height="4" transform="translate(2 61)"/><rect class="a" width="4" height="10" transform="translate(61 2)"/><rect class="a" width="3.938" height="11.143" transform="translate(97.042 99.827) rotate(-45)"/><rect class="a" width="11.143" height="3.938" transform="translate(97.053 26.184) rotate(-45)"/></svg>