<svg xmlns="http://www.w3.org/2000/svg" width="126" height="126" viewBox="0 0 126 126"><defs><style>.a{fill:#1e22aa;}</style></defs><path class="a" d="M116.963,71.75H9.037L0,62.713V56H50.026l3.938,3.938H72.037L75.974,56H126v6.713ZM10.651,67.813h104.7l6.713-6.713V59.938H77.588l-3.937,3.938h-21.3l-3.937-3.937H3.938V61.1Z" transform="translate(0 54.25)"/><path class="a" d="M8.938,90.906H5V29.875A7.875,7.875,0,0,1,12.875,22v3.938a3.938,3.938,0,0,0-3.937,3.938Z" transform="translate(4.844 21.313)"/><path class="a" d="M62.875,90.906H58.937V29.875A3.938,3.938,0,0,0,55,25.938V22a7.875,7.875,0,0,1,7.875,7.875Z" transform="translate(53.281 21.313)"/><path class="a" d="M28.812,56.563C22.079,56.563,17,50.223,17,41.8,17,35.891,18.339,29,28.812,29s11.813,6.832,11.813,12.8C40.625,50.223,35.546,56.563,28.812,56.563Zm0-23.625c-5.906,0-7.875,2.146-7.875,8.859,0,5.257,2.756,10.828,7.875,10.828s7.875-5.572,7.875-10.828C36.688,35.083,34.719,32.938,28.812,32.938Z" transform="translate(16.469 28.094)"/><path class="a" d="M49.406,61.53h-31.5C14.7,61.53,12,57.927,12,53.655V48.576L26.766,40.13l1.969,3.426-12.8,7.3v2.8c0,2.4,1.378,3.938,1.969,3.938h31.5c.591,0,1.969-1.536,1.969-3.937v-2.8l-12.8-7.3,1.969-3.426,14.766,8.446v5.079C55.313,57.927,52.615,61.53,49.406,61.53Z" transform="translate(11.625 38.876)"/><path class="a" d="M60.219,66.938a1.654,1.654,0,0,1-.748-.158,1.969,1.969,0,0,1-1.221-1.811V47.25H16.906A5.906,5.906,0,0,1,11,41.344V5.906A5.906,5.906,0,0,1,16.906,0H87.781a5.906,5.906,0,0,1,5.906,5.906V41.344a5.906,5.906,0,0,1-5.906,5.906H80.713l-19.1,19.117A1.969,1.969,0,0,1,60.219,66.938Zm-43.313-63a1.969,1.969,0,0,0-1.969,1.969V41.344a1.969,1.969,0,0,0,1.969,1.969H60.219a1.969,1.969,0,0,1,1.969,1.969V60.224L78.508,43.883a1.969,1.969,0,0,1,1.4-.571h7.875a1.969,1.969,0,0,0,1.969-1.969V5.906a1.969,1.969,0,0,0-1.969-1.969Z" transform="translate(10.656)"/><rect class="a" width="4" height="4" transform="translate(61 22)"/><rect class="a" width="4" height="4" transform="translate(69 22)"/><rect class="a" width="4" height="4" transform="translate(53 22)"/><path class="a" d="M66.531,66.5H37V62.563H62.594V35h3.938Z" transform="translate(35.844 33.906)"/><rect class="a" width="17" height="4" transform="translate(77 73)"/><rect class="a" width="17" height="4" transform="translate(77 81)"/><rect class="a" width="17" height="4" transform="translate(77 88)"/></svg>